

<!DOCTYPE svg PUBLIC "-//W3C//DTD SVG 20010904//EN"
 "http://www.w3.org/TR/2001/REC-SVG-20010904/DTD/svg10.dtd">
<svg version="1.0" xmlns="http://www.w3.org/2000/svg"
 width="747.000000pt" height="248.000000pt" viewBox="0 0 747.000000 248.000000"
 preserveAspectRatio="xMidYMid meet">
<metadata>
Created by potrace 1.15, written by Peter Selinger 2001-2017
</metadata>

<g transform="translate(0.000000,248.000000) scale(0.100000,-0.100000)"
fill="#FFFFFF" stroke="none">
<path d="M0 1490 c0 -545 2 -990 5 -990 21 0 111 180 195 390 21 52 79 191
129 308 50 117 91 223 91 234 0 13 -19 40 -46 65 l-47 43 383 0 c382 0 383 0
358 -20 -14 -10 -31 -33 -38 -50 -17 -42 -10 -65 109 -328 54 -119 135 -302
181 -407 66 -150 93 -199 126 -232 28 -30 50 -43 68 -43 33 0 71 39 80 81 3
18 6 214 6 438 0 402 -1 406 -23 446 -13 23 -44 55 -75 75 l-53 35 418 3 c264
2 442 -1 483 -8 161 -27 261 -83 306 -172 54 -106 27 -239 -62 -318 -40 -35
-108 -69 -136 -70 -10 0 -18 -2 -18 -5 0 -11 413 -713 439 -745 15 -19 47 -50
70 -68 l43 -32 -64 0 c-82 0 -163 21 -263 70 -135 65 -260 179 -360 330 -61
93 -270 479 -262 486 2 2 33 8 70 13 114 16 164 63 174 164 7 73 -10 129 -52
166 -44 38 -90 51 -187 51 l-78 0 0 -442 c0 -408 2 -446 19 -483 10 -22 28
-49 40 -59 11 -11 21 -23 21 -27 0 -11 -1137 -12 -1144 0 -3 5 5 16 19 25 13
9 32 30 41 48 32 63 19 107 -153 493 -88 198 -163 373 -167 388 -4 16 -11 27
-17 25 -8 -3 -64 -130 -114 -258 -7 -19 -30 -73 -49 -120 -20 -46 -36 -89 -36
-95 0 -7 56 -9 166 -7 101 2 170 0 176 -6 7 -7 -4 -12 -30 -17 -62 -10 -171
-67 -227 -117 -86 -78 -130 -202 -105 -293 7 -25 17 -48 21 -51 13 -8 11 -25
-3 -23 -7 1 -106 1 -220 0 l-208 -1 0 -190 0 -190 3735 0 3735 0 0 1240 0
1240 -3735 0 -3735 0 0 -990z m600 563 c14 -34 29 -65 33 -69 3 -4 18 17 31
47 22 47 24 55 11 69 -8 9 -15 18 -15 21 0 8 145 0 146 -8 1 -4 -1 -14 -3 -20
-6 -16 95 -259 113 -274 28 -23 12 -29 -71 -29 -82 0 -85 1 -73 20 10 15 10
27 -1 56 -28 76 -53 126 -61 118 -4 -5 -27 -52 -50 -104 -23 -52 -45 -99 -49
-103 -4 -4 -21 23 -36 60 -72 172 -64 158 -79 137 -7 -10 -23 -43 -35 -73
l-23 -54 21 -28 22 -29 -76 0 -76 0 21 30 c27 38 120 236 120 255 0 8 -9 20
-20 27 -11 7 -20 15 -20 18 0 3 32 3 72 0 l71 -5 27 -62z m613 47 c-5 -21 77
-226 108 -272 11 -14 19 -29 19 -32 0 -3 -38 -6 -85 -6 -84 0 -96 5 -73 28 8
8 0 39 -37 127 -26 63 -50 115 -54 115 -11 0 -62 -110 -56 -121 4 -5 22 -9 41
-9 l35 0 -34 -32 c-24 -23 -37 -46 -42 -75 -4 -24 -10 -43 -15 -43 -15 0 -80
80 -80 99 0 11 20 63 45 116 35 75 43 100 34 111 -9 11 6 14 88 16 54 2 101 2
105 0 3 -1 4 -11 1 -22z m457 15 c0 -3 -10 -25 -22 -49 l-21 -45 -28 30 c-64
69 -139 17 -139 -96 0 -81 30 -125 86 -125 34 0 34 0 34 47 0 30 -6 53 -17 65
-16 18 -15 19 58 16 l74 -3 3 -110 3 -109 -29 27 c-26 25 -34 27 -117 27 -142
0 -213 48 -223 150 -8 86 50 158 143 178 34 7 195 4 195 -3z m248 5 c2 0 -4
-10 -12 -22 -22 -31 -23 -240 -2 -280 l15 -28 -80 0 c-43 0 -79 2 -79 5 0 3 7
17 16 30 13 20 15 47 13 144 -3 78 -8 124 -16 133 -7 6 -13 14 -13 18 0 4 132
4 158 0z m364 1 c15 -1 15 -6 -4 -52 l-21 -51 -24 31 c-24 31 -59 40 -98 25
-60 -23 -60 -215 0 -238 45 -17 91 -5 159 39 l29 19 -11 -21 c-6 -11 -33 -35
-59 -53 -44 -29 -53 -31 -114 -28 -53 3 -75 9 -107 32 -98 68 -96 205 4 266
47 30 116 38 246 31z m1521 3 c34 -6 37 -9 37 -40 0 -34 -8 -42 -25 -25 -6 6
-28 13 -50 16 -30 4 -48 1 -73 -15 -38 -24 -52 -54 -52 -117 0 -81 84 -138
151 -103 31 17 25 64 -13 94 l-33 26 63 0 62 0 0 -75 c0 -90 -10 -99 -115 -99
-88 -1 -131 21 -162 84 -28 53 -29 101 -4 155 39 86 106 116 214 99z m340
-129 c30 -66 63 -139 75 -162 l20 -43 -44 0 c-38 0 -44 3 -44 21 0 45 -17 59
-75 59 -47 0 -57 -3 -71 -25 -9 -14 -14 -32 -10 -40 4 -12 -4 -15 -41 -15 -35
0 -43 3 -36 13 6 6 29 53 51 102 91 203 104 227 112 219 5 -5 33 -63 63 -129z
m1790 -75 c11 0 9 144 -3 174 -9 26 -9 26 36 26 41 0 45 -2 38 -17 -5 -10 -10
-85 -11 -167 -1 -82 -4 -150 -6 -152 -2 -2 -48 43 -101 101 -54 58 -102 103
-107 100 -10 -7 -6 -153 5 -177 7 -16 2 -18 -38 -18 -43 0 -46 2 -36 19 5 11
10 87 10 173 l1 153 102 -108 c56 -59 105 -107 110 -107z m398 194 c10 -6 12
-47 3 -56 -3 -3 -23 1 -45 10 -107 42 -199 -72 -144 -178 26 -51 100 -76 139
-47 26 19 18 79 -11 92 -38 16 -26 25 32 25 l55 0 0 -79 0 -80 -54 -12 c-100
-22 -183 8 -221 82 -20 37 -19 123 1 166 19 39 67 79 104 86 28 6 128 -1 141
-9z m-3628 -26 c5 -33 -2 -54 -10 -30 -3 6 -20 12 -39 12 l-34 0 0 -128 c0
-86 4 -132 12 -140 9 -9 0 -12 -40 -12 -49 0 -52 1 -42 19 5 11 10 74 10 140
l0 121 -26 0 c-14 0 -35 -5 -46 -11 -19 -10 -20 -9 -15 12 4 13 7 30 7 37 0 9
29 12 109 12 l109 0 5 -32z m159 20 c-7 -7 -12 -36 -12 -65 l0 -53 71 0 71 0
-4 48 c-3 26 -8 55 -12 65 -7 15 -2 17 43 17 47 0 65 -10 41 -25 -13 -8 -13
-261 0 -286 10 -18 7 -19 -40 -19 -48 0 -50 1 -40 20 6 11 10 44 8 73 l-3 51
-44 4 c-23 2 -54 1 -67 -2 -22 -6 -24 -12 -24 -64 0 -32 5 -63 12 -70 9 -9 0
-12 -41 -12 -47 0 -52 2 -45 18 4 9 8 76 8 148 1 97 -3 135 -13 147 -12 16 -8
17 45 17 45 0 55 -3 46 -12z m488 -23 c0 -32 -2 -35 -19 -25 -11 5 -40 10 -65
10 l-46 0 0 -40 0 -40 59 0 c57 0 58 -1 57 -27 -1 -26 -2 -27 -59 -24 l-58 3
3 -49 3 -48 48 -3 c27 -2 55 2 63 9 12 9 14 5 14 -25 l0 -36 -107 0 c-83 0
-104 3 -95 12 15 15 17 271 2 299 -10 18 -6 19 95 19 l105 0 0 -35z m1120 23
c0 -7 3 -24 6 -38 6 -21 4 -23 -7 -12 -7 6 -28 12 -46 12 l-33 0 0 -121 c0
-66 5 -129 10 -140 10 -18 7 -19 -40 -19 -47 0 -50 1 -40 19 5 11 10 72 10
136 0 128 -5 139 -63 117 -27 -10 -29 -10 -23 11 3 12 6 28 6 35 0 9 29 12
110 12 81 0 110 -3 110 -12z m154 -5 c-4 -10 -9 -39 -12 -65 l-4 -48 71 0 71
0 0 53 c0 29 -5 58 -12 65 -9 9 1 12 46 12 50 0 57 -2 46 -14 -8 -11 -11 -59
-8 -165 l3 -151 -49 0 c-39 0 -47 3 -38 12 7 7 12 39 12 73 l0 61 -67 0 -68
-1 -3 -52 c-2 -29 2 -62 8 -73 10 -19 8 -20 -42 -20 -40 0 -49 3 -40 12 15 15
17 271 2 299 -10 18 -7 19 41 19 45 0 50 -2 43 -17z m496 -19 c0 -30 -2 -34
-14 -25 -8 7 -36 11 -63 9 -48 -3 -48 -3 -51 -40 l-3 -38 55 0 c49 0 56 -2 56
-20 0 -11 1 -23 3 -27 1 -4 -24 -6 -56 -4 l-58 3 3 -49 3 -48 63 0 c61 0 62 0
62 -27 l0 -28 -105 0 c-101 0 -105 1 -95 19 5 11 10 77 10 146 0 69 -5 135
-10 146 -10 18 -6 19 95 19 l105 0 0 -36z m263 23 c44 -19 59 -40 59 -84 0
-28 -7 -43 -26 -60 -14 -12 -26 -26 -26 -30 0 -5 20 -39 44 -76 l44 -67 -34 0
c-31 0 -38 6 -88 82 -30 45 -53 85 -50 90 3 4 16 8 29 8 24 0 45 25 45 54 0
25 -30 46 -66 46 l-34 0 0 -128 c0 -86 4 -132 12 -140 9 -9 0 -12 -40 -12 -50
0 -52 1 -42 20 13 24 10 265 -4 293 -7 15 -1 17 68 17 42 0 91 -6 109 -13z
m241 -4 c-5 -10 -9 -76 -9 -148 0 -71 4 -138 9 -147 7 -16 2 -18 -45 -18 -41
0 -50 3 -41 12 15 15 17 271 2 299 -10 18 -7 19 41 19 45 0 50 -2 43 -17z
m-1792 -645 c5 -218 4 -289 -2 -293 -4 -2 -20 24 -35 57 -37 79 -87 135 -133
148 -21 5 -110 10 -199 10 l-163 0 0 -177 0 -178 186 0 c102 0 188 -3 190 -6
2 -3 -30 -38 -70 -78 l-74 -71 -115 0 -116 0 -3 -160 -3 -160 173 0 c135 0
179 3 202 15 38 20 103 101 138 174 l27 56 3 -199 c2 -153 -1 -201 -10 -208
-15 -9 -1008 -11 -1008 -2 0 4 18 26 39 49 68 74 71 94 71 545 0 391 0 396
-22 440 -15 30 -41 58 -77 82 l-54 38 526 0 527 0 2 -82z m744 -180 c131 -144
251 -277 266 -296 15 -18 30 -32 33 -30 4 2 7 93 6 203 -2 230 -10 268 -72
339 l-41 46 238 0 238 0 -37 -38 c-21 -21 -46 -62 -57 -90 -19 -48 -20 -81
-20 -616 -1 -311 -5 -568 -9 -571 -8 -4 -85 75 -426 435 -203 214 -297 316
-333 360 -18 22 -21 23 -27 8 -4 -10 -5 -120 -3 -245 3 -226 3 -228 31 -285
15 -31 41 -68 57 -81 16 -14 26 -27 23 -30 -8 -9 -463 -8 -463 0 0 4 16 23 34
41 72 70 71 60 74 522 2 276 0 427 -8 452 -11 38 -90 118 -116 118 -8 0 -14 5
-14 10 0 6 71 10 193 10 l194 0 239 -262z m1768 244 c-29 -23 -44 -54 -44 -91
0 -37 347 -823 396 -896 18 -27 51 -68 73 -90 23 -21 41 -45 41 -52 0 -10 -64
-13 -315 -13 -173 0 -315 3 -315 6 0 4 15 24 34 45 39 43 52 91 38 140 -5 19
-80 193 -166 388 -87 194 -160 366 -163 382 -7 37 -31 38 -39 2 -4 -16 -47
-122 -96 -237 -48 -115 -86 -211 -83 -214 2 -3 81 -4 175 -3 93 1 170 -1 170
-6 0 -4 -28 -16 -63 -26 -123 -36 -233 -120 -277 -213 -30 -62 -38 -166 -16
-218 9 -21 16 -40 16 -42 0 -2 -117 -4 -260 -4 -143 0 -260 2 -260 5 0 3 29
40 65 83 36 43 83 114 106 161 41 85 129 286 129 296 0 3 47 116 105 251 62
145 103 254 100 264 -7 22 -62 80 -75 80 -6 0 -10 5 -10 10 0 6 132 10 378 10
359 0 376 -1 356 -18z"/>
</g>
</svg>
