

<!DOCTYPE svg PUBLIC "-//W3C//DTD SVG 20010904//EN"
 "http://www.w3.org/TR/2001/REC-SVG-20010904/DTD/svg10.dtd">
<svg version="1.0" xmlns="http://www.w3.org/2000/svg"
 width="258.000000pt" height="104.000000pt" viewBox="0 0 258.000000 104.000000"
 preserveAspectRatio="xMidYMid meet">
<metadata>
Created by potrace 1.15, written by Peter Selinger 2001-2017
</metadata>
<g transform="translate(0.000000,104.000000) scale(0.100000,-0.100000)"
fill="#000000" stroke="none">
<path d="M246 858 c-12 -166 -28 -268 -41 -268 -7 0 -15 15 -19 32 -7 40 -26
206 -26 231 0 9 -4 17 -10 17 -5 0 -10 -14 -10 -31 0 -52 -31 -242 -43 -263
-10 -19 -12 -17 -24 24 -7 25 -16 75 -20 113 -11 122 -28 75 -39 -113 l-7
-106 42 -18 c51 -24 126 -102 151 -159 25 -57 50 -153 50 -194 0 -35 14 -44
24 -17 3 9 6 28 6 44 0 46 40 161 76 217 32 50 122 123 153 123 11 0 13 15 7
83 -12 157 -19 207 -26 207 -4 0 -10 -24 -14 -52 -13 -103 -29 -169 -40 -165
-14 5 -34 102 -42 215 -5 67 -11 92 -20 92 -10 0 -14 -15 -14 -52 0 -89 -21
-228 -35 -228 -16 0 -22 28 -35 185 -7 72 -14 140 -16 153 -9 48 -21 18 -28
-70z"/>
</g>
</svg>
